<?xml version="1.0" encoding="utf-8"?>
<!-- Generator: Adobe Illustrator 20.1.0, SVG Export Plug-In . SVG Version: 6.00 Build 0)  -->
<svg version="1.1" xmlns="http://www.w3.org/2000/svg" xmlns:xlink="http://www.w3.org/1999/xlink" x="0px" y="0px"
	 viewBox="0 0 283.5 283.5" style="enable-background:new 0 0 283.5 283.5;" xml:space="preserve">
<style type="text/css">
	.st0{display:none;}
	.st1{display:inline;fill:#010202;}
	.st2{fill:#010202;}
</style>
<g id="Calque_3" class="st0">
	<path class="st1" d="M275.3,0H8.2C3.7,0,0,3.7,0,8.2v267.1c0,4.5,3.7,8.2,8.2,8.2h267.1c4.5,0,8.2-3.7,8.2-8.2V8.2
		C283.5,3.7,279.8,0,275.3,0z M76,115.7l-36.4,36.4l-16-16L52,107.7L23.6,79.4l16-16L76,99.7c2.1,2.1,3.3,5,3.3,8
		S78.2,113.6,76,115.7z M164.4,85H119v45.4h22.7v-22.7h22.7v34c0,6.3-5.1,11.3-11.3,11.3h-45.4c-6.3,0-11.3-5.1-11.3-11.3v-68
		c0-6.3,5.1-11.3,11.3-11.3h56.7V85z M249.4,170.1h-68v-17h68V170.1z"/>
</g>
<g id="Calque_2">
	<g>
		<path class="st2" d="M277.8,5.7v272.2H5.7V5.7H277.8 M277.8,0H5.7C2.5,0,0,2.5,0,5.7v272.2c0,3.1,2.5,5.7,5.7,5.7h272.2
			c3.1,0,5.7-2.5,5.7-5.7V5.7C283.5,2.5,281,0,277.8,0L277.8,0z"/>
	</g>
	<polygon class="st2" points="43.7,69.7 71.5,98.6 74.9,102.1 71.5,105.6 43.7,134.4 35.7,126.4 64.5,98.6 64.5,105.6 35.7,77.7 	
		"/>
	<g>
		<path d="M92.3,103.8c0-4.8,0.6-9.2,1.8-13.2c1.2-4,2.9-7.4,5.2-10.3c2.2-2.9,4.9-5.1,8.1-6.7c3.2-1.6,6.7-2.4,10.6-2.4
			c3.8,0,7.1,0.6,9.9,1.9c2.8,1.3,5.2,3.2,7.2,5.6l0.6-6.4h12.8v62c0,4.3-0.7,8.1-2.1,11.4c-1.4,3.3-3.4,6.1-5.9,8.4
			c-2.5,2.3-5.6,4-9.1,5.2c-3.5,1.2-7.4,1.8-11.7,1.8c-1.7,0-3.7-0.2-5.9-0.6s-4.4-1-6.6-1.8c-2.2-0.8-4.3-1.9-6.3-3.3
			c-2-1.4-3.7-3-5.1-4.9l6.7-8.4c2.4,2.8,5,4.8,7.7,6.1c2.8,1.2,5.6,1.8,8.6,1.8c2.4,0,4.5-0.3,6.4-1c1.9-0.7,3.6-1.6,4.9-2.9
			c1.3-1.3,2.4-2.9,3.1-4.8c0.7-1.9,1.1-4.1,1.1-6.6v-4.3c-2,2.2-4.3,3.9-7,5.1c-2.7,1.2-5.8,1.8-9.4,1.8c-3.9,0-7.4-0.8-10.5-2.4
			c-3.1-1.6-5.8-3.9-8.1-6.7c-2.2-2.9-4-6.3-5.2-10.2c-1.2-3.9-1.8-8.2-1.8-12.9V103.8z M106.5,105c0,2.9,0.3,5.6,0.9,8.1
			c0.6,2.5,1.5,4.7,2.7,6.6c1.2,1.9,2.8,3.4,4.7,4.4c1.9,1.1,4.2,1.6,6.7,1.6c3.3,0,5.9-0.7,7.9-2c2-1.4,3.7-3.2,4.9-5.4V90.1
			c-1.3-2.2-2.9-4-4.9-5.4c-2-1.3-4.6-2-7.8-2c-2.6,0-4.8,0.6-6.7,1.6c-1.9,1.1-3.5,2.6-4.7,4.5c-1.2,1.9-2.2,4.2-2.8,6.7
			c-0.6,2.6-0.9,5.3-0.9,8.1V105z"/>
		<path d="M220.3,147.2h-54v-11.1h54V147.2z">
			<animate attributeType="XML" attributeName="visibility" from="hidden" to="visible" dur="2s" repeatCount="indefinite"/>
		</path>
	</g>
</g>
</svg>
