<?xml version="1.0" encoding="utf-8"?>
<!-- Generator: Adobe Illustrator 20.1.0, SVG Export Plug-In . SVG Version: 6.00 Build 0)  -->
<svg version="1.1" id="Calque_2" xmlns="http://www.w3.org/2000/svg" xmlns:xlink="http://www.w3.org/1999/xlink" x="0px" y="0px"
	 viewBox="0 0 283.5 283.5" style="enable-background:new 0 0 283.5 283.5;" xml:space="preserve">
<style type="text/css">
	.st0{fill:#010202;}
</style>
<g>
	<path class="st0" d="M129.4,84.8c-2-1.3-4.6-2-7.8-2c-2.6,0-4.8,0.6-6.7,1.6c-1.9,1.1-3.5,2.6-4.7,4.5c-1.2,1.9-2.2,4.2-2.8,6.7
		c-0.6,2.6-0.9,5.3-0.9,8.1v1.2c0,2.9,0.3,5.6,0.9,8.1c0.6,2.5,1.5,4.7,2.7,6.6c1.2,1.9,2.8,3.4,4.7,4.4c1.9,1.1,4.2,1.6,6.7,1.6
		c3.3,0,5.9-0.7,7.9-2c2-1.4,3.7-3.2,4.9-5.4V90.1C133.1,87.9,131.4,86.1,129.4,84.8z"/>
	<path class="st0" d="M277.8,0H5.7C2.5,0,0,2.5,0,5.7v272.2c0,3.1,2.5,5.7,5.7,5.7h272.2c3.1,0,5.7-2.5,5.7-5.7V5.7
		C283.5,2.5,281,0,277.8,0z M71.5,105.6l-27.9,28.8l-8-8l25.2-24.3L35.7,77.7l8-8l27.9,28.8l3.4,3.5L71.5,105.6z M148.4,134.4
		c0,4.3-0.7,8.1-2.1,11.4c-1.4,3.3-3.4,6.1-5.9,8.4c-2.5,2.3-5.6,4-9.1,5.2c-3.5,1.2-7.4,1.8-11.7,1.8c-1.7,0-3.7-0.2-5.9-0.6
		s-4.4-1-6.6-1.8c-2.2-0.8-4.3-1.9-6.3-3.3c-2-1.4-3.7-3-5.1-4.9l6.7-8.4c2.4,2.8,5,4.8,7.7,6.1c2.8,1.2,5.6,1.8,8.6,1.8
		c2.4,0,4.5-0.3,6.4-1c1.9-0.7,3.6-1.6,4.9-2.9c1.3-1.3,2.4-2.9,3.1-4.8c0.7-1.9,1.1-4.1,1.1-6.6v-4.3c-2,2.2-4.3,3.9-7,5.1
		c-2.7,1.2-5.8,1.8-9.4,1.8c-3.9,0-7.4-0.8-10.5-2.4c-3.1-1.6-5.8-3.9-8.1-6.7c-2.2-2.9-4-6.3-5.2-10.2c-1.2-3.9-1.8-8.2-1.8-12.9
		v-1.2c0-4.8,0.6-9.2,1.8-13.2c1.2-4,2.9-7.4,5.2-10.3c2.2-2.9,4.9-5.1,8.1-6.7c3.2-1.6,6.7-2.4,10.6-2.4c3.8,0,7.1,0.6,9.9,1.9
		c2.8,1.3,5.2,3.2,7.2,5.6l0.6-6.4h12.8V134.4z M220.3,147.2h-54v-11.1h54V147.2z"/>
</g>
</svg>
